<svg width="421" height="82" viewBox="0 0 421 82" fill="none" xmlns="http://www.w3.org/2000/svg">
<path d="M283.25 19.8575H296.53V21.6175H290.86V37.9775H288.94V21.6175H283.24V19.8575H283.25Z" fill="white"/>
<path d="M299.271 37.9875V19.8675H301.081V27.8175C301.441 27.1275 301.971 26.5775 302.671 26.1575C303.371 25.7375 304.161 25.5375 305.041 25.5375C306.351 25.5375 307.391 25.9675 308.161 26.8175C308.931 27.6675 309.311 28.8275 309.311 30.2975V37.9875H307.501V30.7175C307.501 29.5775 307.251 28.7075 306.751 28.0875C306.251 27.4775 305.551 27.1675 304.651 27.1675C303.631 27.1675 302.781 27.5375 302.101 28.2675C301.421 28.9975 301.081 29.9175 301.081 31.0275V37.9975H299.271V37.9875Z" fill="white"/>
<path d="M321.65 34.6975L323.18 35.1675C322.2 37.3075 320.53 38.3775 318.18 38.3775C316.39 38.3775 314.93 37.7775 313.82 36.5675C312.7 35.3575 312.15 33.8375 312.15 31.9875C312.15 30.1375 312.68 28.6075 313.73 27.3775C314.78 26.1475 316.17 25.5375 317.9 25.5375C319.49 25.5375 320.83 26.0775 321.93 27.1675C323.03 28.2575 323.6 29.7775 323.65 31.7475V32.3675H313.99C314.08 33.6975 314.5 34.7775 315.25 35.6075C316 36.4375 316.99 36.8475 318.22 36.8475C319.81 36.8475 320.95 36.1275 321.66 34.6975H321.65ZM317.92 26.9875C316.8 26.9875 315.9 27.3575 315.22 28.0875C314.54 28.8175 314.14 29.8175 314.02 31.0775H321.76C321.69 29.7175 321.29 28.6875 320.56 28.0075C319.83 27.3275 318.95 26.9875 317.93 26.9875H317.92Z" fill="white"/>
<path d="M338.35 38.3675C336.76 38.3675 335.36 37.9575 334.14 37.1275C332.92 36.2975 332.22 35.1275 332.03 33.6075L333.87 33.2475C334.04 34.3875 334.56 35.2475 335.42 35.8275C336.28 36.4075 337.28 36.6975 338.4 36.6975C339.63 36.6975 340.62 36.3775 341.38 35.7275C342.14 35.0775 342.52 34.2375 342.52 33.2075C342.52 32.4975 342.34 31.9075 341.98 31.4375C341.62 30.9675 341.15 30.6075 340.57 30.3675C339.99 30.1275 339.36 29.9175 338.67 29.7375C337.98 29.5575 337.28 29.3575 336.59 29.1475C335.89 28.9275 335.25 28.6575 334.67 28.3275C334.09 27.9975 333.62 27.5075 333.26 26.8475C332.9 26.1975 332.72 25.3975 332.72 24.4675C332.72 22.9675 333.26 21.7675 334.33 20.8575C335.4 19.9575 336.75 19.4975 338.39 19.4975C340.03 19.4975 341.41 19.9475 342.48 20.8575C343.55 21.7675 344.18 22.9275 344.37 24.3375L342.53 24.6475C342.38 23.6275 341.93 22.7975 341.2 22.1475C340.47 21.4975 339.5 21.1775 338.31 21.1775C337.28 21.1775 336.41 21.4575 335.71 22.0175C335.01 22.5775 334.66 23.3475 334.66 24.3375C334.66 25.3275 335 26.0275 335.67 26.5475C336.34 27.0775 337.16 27.4475 338.12 27.6775C339.08 27.8975 340.04 28.1575 341 28.4375C341.96 28.7175 342.79 29.2375 343.46 29.9775C344.13 30.7175 344.47 31.7275 344.47 33.0075C344.47 34.6275 343.9 35.9275 342.75 36.9175C341.6 37.8975 340.14 38.3975 338.36 38.3975L338.35 38.3675Z" fill="white"/>
<path d="M356.631 34.6975L358.161 35.1675C357.181 37.3075 355.511 38.3775 353.161 38.3775C351.361 38.3775 349.911 37.7775 348.801 36.5675C347.691 35.3575 347.131 33.8375 347.131 31.9875C347.131 30.1375 347.661 28.6075 348.711 27.3775C349.761 26.1475 351.151 25.5375 352.881 25.5375C354.471 25.5375 355.811 26.0775 356.911 27.1675C358.011 28.2575 358.581 29.7775 358.631 31.7475V32.3675H348.981C349.071 33.6975 349.481 34.7775 350.241 35.6075C350.991 36.4375 351.981 36.8475 353.201 36.8475C354.791 36.8475 355.931 36.1275 356.641 34.6975H356.631ZM352.901 26.9875C351.781 26.9875 350.871 27.3575 350.191 28.0875C349.511 28.8175 349.111 29.8175 348.991 31.0775H356.731C356.661 29.7175 356.261 28.6875 355.531 28.0075C354.801 27.3275 353.921 26.9875 352.901 26.9875Z" fill="white"/>
<path d="M370.731 29.9875V37.9875H369.001V36.4575H368.951C368.621 37.0475 368.111 37.5075 367.411 37.8475C366.711 38.1875 365.931 38.3475 365.071 38.3475C363.811 38.3475 362.791 38.0075 362.021 37.3275C361.251 36.6475 360.851 35.7575 360.851 34.6775C360.851 33.5075 361.301 32.5575 362.201 31.8375C363.101 31.1175 364.301 30.7575 365.821 30.7575C367.171 30.7575 368.201 30.9775 368.931 31.4075V30.0075C368.931 29.0775 368.681 28.3475 368.181 27.8175C367.681 27.2875 366.971 27.0275 366.061 27.0275C364.561 27.0275 363.591 27.6875 363.161 28.9975L361.351 28.8175C361.641 27.7775 362.221 26.9775 363.091 26.3975C363.951 25.8175 364.991 25.5275 366.191 25.5275C367.621 25.5275 368.741 25.9175 369.541 26.7075C370.341 27.4975 370.741 28.5875 370.741 29.9775L370.731 29.9875ZM362.681 34.5175C362.681 35.2075 362.941 35.7775 363.461 36.2175C363.981 36.6575 364.631 36.8775 365.431 36.8775C366.361 36.8775 367.181 36.5975 367.891 36.0375C368.601 35.4775 368.951 34.8475 368.951 34.1375V32.8675C368.241 32.3875 367.261 32.1475 366.001 32.1475C364.971 32.1475 364.151 32.3575 363.571 32.7975C362.991 33.2375 362.691 33.8075 362.691 34.5375L362.681 34.5175Z" fill="white"/>
<path d="M374.381 37.9875V25.9275H376.091V27.9175H376.191C376.501 27.2075 376.971 26.6475 377.591 26.2375C378.211 25.8275 378.891 25.6175 379.631 25.6175C380.041 25.6175 380.381 25.6775 380.641 25.7975V27.5575C380.381 27.4575 380.041 27.4075 379.631 27.4075C378.611 27.4075 377.781 27.8075 377.151 28.5975C376.521 29.3875 376.191 30.4675 376.191 31.8375V37.9975H374.381V37.9875Z" fill="white"/>
<path d="M387.59 25.5275C390.39 25.5275 392.18 26.8275 392.97 29.4375L391.21 29.7175C390.64 28.0075 389.45 27.1575 387.64 27.1575C386.4 27.1575 385.43 27.6075 384.73 28.5075C384.03 29.4075 383.68 30.5575 383.68 31.9475C383.68 33.3375 384.02 34.4975 384.71 35.3875C385.4 36.2875 386.38 36.7375 387.63 36.7375C389.41 36.7375 390.59 35.8775 391.18 34.1475L392.89 34.5875C392.51 35.7975 391.87 36.7275 390.97 37.3875C390.07 38.0475 388.97 38.3675 387.66 38.3675C385.9 38.3675 384.49 37.7575 383.44 36.5475C382.39 35.3275 381.86 33.7975 381.86 31.9575C381.86 30.1175 382.39 28.5375 383.45 27.3375C384.51 26.1375 385.89 25.5375 387.58 25.5375L387.59 25.5275Z" fill="white"/>
<path d="M395.74 37.9875V19.8675H397.55V27.8175C397.91 27.1275 398.44 26.5775 399.14 26.1575C399.84 25.7375 400.63 25.5375 401.51 25.5375C402.82 25.5375 403.86 25.9675 404.63 26.8175C405.4 27.6675 405.78 28.8275 405.78 30.2975V37.9875H403.97V30.7175C403.97 29.5775 403.72 28.7075 403.22 28.0875C402.72 27.4675 402.02 27.1675 401.12 27.1675C400.1 27.1675 399.25 27.5375 398.57 28.2675C397.89 28.9975 397.55 29.9175 397.55 31.0275V37.9975H395.74V37.9875Z" fill="white"/>
<path d="M292.23 46.1275L299.19 64.4775H297.14L295.04 58.8575H287.2L285.13 64.4775H283.11L290.1 46.1275H292.22H292.23ZM291.2 48.3275H291.1L287.86 57.1275H294.46L291.2 48.3275Z" fill="white"/>
<path d="M302.301 46.3575H304.221V64.4775H302.301V46.3575Z" fill="white"/>
<path d="M314.131 55.4175C314.131 52.5675 314.951 50.2875 316.591 48.5575C318.231 46.8275 320.311 45.9675 322.831 45.9675C324.621 45.9675 326.191 46.4475 327.531 47.4175C328.871 48.3875 329.811 49.7075 330.341 51.4075L328.371 51.7175C327.991 50.5575 327.311 49.6075 326.311 48.8675C325.321 48.1275 324.161 47.7575 322.831 47.7575C320.881 47.7575 319.261 48.4775 317.981 49.9075C316.691 51.3375 316.051 53.1775 316.051 55.4175C316.051 57.6575 316.691 59.4775 317.971 60.9175C319.251 62.3575 320.861 63.0775 322.811 63.0775C324.121 63.0775 325.271 62.7175 326.271 61.9875C327.261 61.2575 327.971 60.2675 328.411 59.0075L330.251 59.4775C329.781 61.1175 328.891 62.4275 327.561 63.3975C326.231 64.3775 324.681 64.8575 322.901 64.8575C320.381 64.8575 318.291 63.9875 316.641 62.2575C314.981 60.5275 314.161 58.2475 314.161 55.4075L314.131 55.4175Z" fill="white"/>
<path d="M332.801 58.4475C332.801 56.5475 333.371 55.0075 334.501 53.8175C335.631 52.6275 337.071 52.0275 338.811 52.0275C340.551 52.0275 342.001 52.6175 343.131 53.8175C344.261 55.0175 344.841 56.5475 344.841 58.4475C344.841 60.3475 344.271 61.8675 343.121 63.0675C341.971 64.2675 340.541 64.8675 338.811 64.8675C337.081 64.8675 335.631 64.2675 334.501 63.0675C333.371 61.8675 332.801 60.3275 332.801 58.4475ZM334.611 58.4475C334.611 59.8075 335.001 60.9475 335.781 61.8675C336.561 62.7875 337.571 63.2375 338.811 63.2375C340.051 63.2375 341.111 62.7875 341.881 61.8775C342.651 60.9675 343.031 59.8275 343.031 58.4475C343.031 57.0675 342.651 55.8975 341.881 55.0075C341.111 54.1075 340.091 53.6575 338.811 53.6575C337.531 53.6575 336.541 54.1075 335.771 55.0075C335.001 55.9075 334.621 57.0475 334.621 58.4475H334.611Z" fill="white"/>
<path d="M365.33 56.6875V64.4775H363.52V57.2075C363.52 56.1075 363.28 55.2375 362.8 54.6075C362.32 53.9775 361.64 53.6575 360.78 53.6575C359.87 53.6575 359.09 54.0175 358.45 54.7375C357.81 55.4575 357.49 56.3175 357.49 57.3375V64.4875H355.68V57.2175C355.68 56.1175 355.44 55.2475 354.95 54.6175C354.46 53.9875 353.79 53.6675 352.93 53.6675C352.02 53.6675 351.24 54.0275 350.6 54.7475C349.96 55.4675 349.64 56.3275 349.64 57.3475V64.4975H347.83V52.4375H349.54V54.1675H349.64C349.95 53.5475 350.45 53.0375 351.13 52.6375C351.81 52.2375 352.57 52.0475 353.4 52.0475C354.3 52.0475 355.09 52.2775 355.77 52.7475C356.45 53.2175 356.91 53.8275 357.13 54.5875C357.54 53.7975 358.11 53.1675 358.81 52.7275C359.51 52.2875 360.31 52.0575 361.19 52.0575C362.45 52.0575 363.45 52.4775 364.21 53.3175C364.96 54.1575 365.34 55.2875 365.34 56.7175L365.33 56.6875Z" fill="white"/>
<path d="M379.21 53.8275C380.28 55.0275 380.81 56.5675 380.81 58.4475C380.81 60.3275 380.27 61.8675 379.18 63.0675C378.09 64.2675 376.71 64.8675 375.04 64.8675C374.11 64.8675 373.27 64.6775 372.52 64.2975C371.77 63.9175 371.2 63.3875 370.8 62.7175V69.6575H368.99V52.4175H370.65V54.5375H370.7C371.11 53.7275 371.71 53.1075 372.49 52.6775C373.27 52.2475 374.13 52.0275 375.08 52.0275C376.77 52.0275 378.15 52.6275 379.22 53.8275H379.21ZM378.98 58.4475C378.98 57.0675 378.59 55.9275 377.8 55.0175C377.01 54.1075 376.02 53.6575 374.81 53.6575C373.6 53.6575 372.58 54.0975 371.85 54.9775C371.12 55.8575 370.75 57.0175 370.75 58.4475C370.75 59.8775 371.12 61.0375 371.85 61.9275C372.58 62.8175 373.57 63.2575 374.81 63.2575C376.05 63.2575 377.08 62.7975 377.84 61.8775C378.6 60.9575 378.98 59.8075 378.98 58.4475Z" fill="white"/>
<path d="M393.09 56.4775V64.4775H391.35V62.9475H391.3C390.97 63.5375 390.46 63.9975 389.76 64.3375C389.06 64.6775 388.28 64.8375 387.42 64.8375C386.16 64.8375 385.14 64.4975 384.37 63.8175C383.59 63.1375 383.21 62.2475 383.21 61.1675C383.21 59.9975 383.66 59.0475 384.56 58.3275C385.46 57.6075 386.66 57.2575 388.18 57.2575C389.53 57.2575 390.56 57.4775 391.29 57.9075V56.5075C391.29 55.5775 391.04 54.8475 390.54 54.3175C390.04 53.7875 389.33 53.5275 388.42 53.5275C386.92 53.5275 385.95 54.1775 385.52 55.4975L383.71 55.3175C384 54.2875 384.58 53.4775 385.45 52.8975C386.31 52.3175 387.35 52.0275 388.56 52.0275C389.99 52.0275 391.11 52.4175 391.91 53.2075C392.71 53.9975 393.11 55.0875 393.11 56.4775H393.09ZM385.04 61.0075C385.04 61.6975 385.3 62.2675 385.82 62.7075C386.34 63.1475 386.99 63.3675 387.79 63.3675C388.72 63.3675 389.54 63.0875 390.25 62.5275C390.96 61.9675 391.31 61.3375 391.31 60.6275V59.3575C390.6 58.8775 389.62 58.6375 388.36 58.6375C387.33 58.6375 386.51 58.8575 385.93 59.2875C385.34 59.7175 385.05 60.2975 385.05 61.0175L385.04 61.0075Z" fill="white"/>
<path d="M406.78 56.7875V64.4775H404.97V57.2075C404.97 56.0675 404.72 55.1875 404.22 54.5775C403.72 53.9675 403.02 53.6575 402.12 53.6575C401.1 53.6575 400.25 54.0275 399.57 54.7575C398.89 55.4875 398.55 56.4075 398.55 57.5175V64.4775H396.74V52.4175H398.45V54.3075H398.55C398.89 53.5975 399.42 53.0475 400.12 52.6375C400.82 52.2275 401.62 52.0275 402.51 52.0275C403.82 52.0275 404.86 52.4575 405.63 53.3075C406.4 54.1575 406.78 55.3175 406.78 56.7875Z" fill="white"/>
<path d="M420.23 52.4175L413.27 69.4775H411.46L413.66 64.1175L408.53 52.4175H410.55L414.64 61.9675L418.39 52.4175H420.23Z" fill="white"/>
<path d="M261.17 13.8375H258.89V71.1275H261.17V13.8375Z" fill="white"/>
<path d="M81.62 42.6075C81.62 39.2975 80.61 36.0575 78.71 33.3475C76.81 30.6376 74.11 28.5776 71 27.4576C71.28 26.0075 71.43 24.5375 71.43 23.0675C71.43 18.1875 69.89 13.4375 67.02 9.49755C64.15 5.55755 60.11 2.61755 55.47 1.11755C50.83 -0.38245 45.83 -0.37245 41.2 1.14755C36.57 2.66755 32.53 5.61755 29.68 9.56755C27.58 7.93755 25 7.03755 22.34 7.00755C19.68 6.97755 17.08 7.80755 14.93 9.38755C12.78 10.9675 11.21 13.1975 10.45 15.7475C9.69 18.2975 9.78 21.0275 10.71 23.5275C7.59 24.6675 4.89 26.7376 2.97 29.4576C1.05 32.1675 0.02 35.4076 0 38.7276C0 42.0476 1.01 45.2975 2.92 48.0175C4.83 50.7375 7.54 52.7976 10.67 53.9076C10.39 55.3576 10.25 56.8175 10.25 58.2875C10.25 63.1575 11.79 67.9076 14.65 71.8376C17.52 75.7776 21.56 78.6976 26.2 80.1876C30.84 81.6776 35.83 81.6576 40.45 80.1276C45.07 78.5976 49.09 75.6476 51.93 71.6876C54.03 73.3176 56.6 74.2276 59.26 74.2676C61.92 74.3076 64.52 73.4776 66.67 71.9076C68.82 70.3376 70.39 68.1076 71.16 65.5576C71.93 63.0076 71.84 60.2875 70.91 57.7875C74.04 56.6475 76.74 54.5876 78.65 51.8675C80.56 49.1475 81.6 45.9075 81.62 42.5775" fill="white"/>
<path d="M32.0896 35.0275L49.9496 43.1875L67.9796 27.3975C68.2396 26.0975 68.3696 24.7675 68.3596 23.4375C68.3596 19.1375 66.9796 14.9475 64.4296 11.4875C61.8796 8.02755 58.2896 5.46755 54.1796 4.19755C50.0696 2.92755 45.6596 2.99755 41.5996 4.41755C37.5396 5.82755 34.0296 8.50755 31.5996 12.0575L28.5996 27.5875L32.0896 35.0275Z" fill="#FEC514"/>
<path d="M13.6005 53.9375C13.3405 55.2575 13.2005 56.6075 13.2105 57.9575C13.2105 62.2775 14.5905 66.4775 17.1605 69.9575C19.7305 73.4275 23.3405 75.9875 27.4605 77.2575C31.5905 78.5275 36.0105 78.4375 40.0905 77.0075C44.1605 75.5775 47.6705 72.8775 50.1005 69.3075L53.0705 53.8075L49.1005 46.2175L31.1705 38.0475L13.5905 53.9275L13.6005 53.9375Z" fill="#00BFB3"/>
<path d="M13.4905 23.0375L25.7305 25.9275L28.4105 12.0075C26.7505 10.7475 24.7205 10.0575 22.6305 10.0475C20.5405 10.0375 18.5005 10.6975 16.8205 11.9375C15.1405 13.1775 13.9105 14.9275 13.3105 16.9375C12.7105 18.9375 12.7705 21.0775 13.4905 23.0375Z" fill="#F04E98"/>
<path d="M12.4302 25.9475C9.74016 26.8575 7.41016 28.5775 5.75016 30.8675C4.09016 33.1675 3.18016 35.9175 3.16016 38.7575C3.16016 41.4975 3.99016 44.1675 5.54016 46.4275C7.09016 48.6875 9.30016 50.4075 11.8602 51.3875L29.0302 35.8675L25.8802 29.1275L12.4302 25.9575V25.9475Z" fill="#1BA9F5"/>
<path d="M53.2402 69.3175C54.9002 70.5775 56.9302 71.2576 59.0102 71.2676C61.0902 71.2776 63.1202 70.6176 64.8002 69.3776C66.4802 68.1376 67.7102 66.3875 68.3102 64.3975C68.9102 62.4075 68.8502 60.2675 68.1402 58.3075L55.9102 55.4576L53.2502 69.3076L53.2402 69.3175Z" fill="#93C90E"/>
<path d="M55.7302 52.2476L69.1902 55.3976C71.8802 54.4976 74.2102 52.7776 75.8802 50.4776C77.5402 48.1776 78.4502 45.4276 78.4702 42.5876C78.4702 39.8576 77.6302 37.1876 76.0802 34.9376C74.5302 32.6876 72.3302 30.9676 69.7702 29.9976L52.1602 45.4176L55.7302 52.2576V52.2476Z" fill="#0077CC"/>
<path d="M114.12 57.1276L115.75 56.9576L115.86 60.2776C112.23 60.8276 108.56 61.1276 104.89 61.1775C100.84 61.1775 97.97 60.0076 96.28 57.6576C94.59 55.3176 93.75 51.6675 93.75 46.7176C93.75 36.8576 97.67 31.9276 105.51 31.9276C109.31 31.9276 112.14 32.9875 114 35.1075C115.87 37.2275 116.8 40.5476 116.81 45.0676L116.59 48.2776H98.03C98.03 51.3876 98.59 53.6975 99.72 55.1975C100.85 56.6975 102.8 57.4475 105.59 57.4475C108.39 57.4475 111.23 57.3475 114.11 57.1276H114.12ZM112.6 44.9275C112.6 41.4775 112.05 39.0376 110.94 37.6176C109.84 36.1976 108.04 35.4776 105.54 35.4776C103.04 35.4776 101.17 36.2276 99.91 37.7276C98.65 39.2276 98.01 41.6275 97.97 44.9275H112.59H112.6Z" fill="white"/>
<path d="M122.71 60.9675V23.9576H126.93V60.9576H122.71V60.9675Z" fill="white"/>
<path d="M153.49 40.9875V55.1675C153.49 56.5875 156.99 56.5175 156.99 56.5175L156.78 60.2475C153.81 60.2475 151.36 60.4975 149.89 59.0675C146.71 60.4775 143.26 61.1975 139.77 61.1775C137.19 61.1775 135.22 60.4475 133.86 58.9775C132.51 57.5175 131.83 55.4075 131.83 52.6675C131.83 49.9275 132.52 47.9075 133.91 46.6175C135.3 45.3275 137.47 44.5375 140.43 44.2475L149.26 43.4075V40.9875C149.26 39.0875 148.85 37.7175 148.03 36.8775C147.58 36.4575 147.05 36.1275 146.47 35.9175C145.89 35.7075 145.27 35.6175 144.65 35.6475H133.57V31.9375H144.37C147.56 31.9375 149.87 32.6675 151.32 34.1375C152.76 35.5975 153.48 37.8875 153.48 40.9975L153.49 40.9875ZM136.16 52.4575C136.16 55.9075 137.58 57.6375 140.43 57.6375C143 57.6375 145.55 57.1975 147.97 56.3375L149.26 55.8875V46.6075L140.95 47.3975C139.26 47.5475 138.04 48.0375 137.29 48.8575C136.54 49.6775 136.16 50.8775 136.16 52.4575Z" fill="white"/>
<path d="M169.95 35.7076C165.86 35.7076 163.82 37.1276 163.82 39.9776C163.82 41.2976 164.29 42.2176 165.24 42.7576C166.19 43.2976 168.33 43.8575 171.65 44.4475C174.99 45.0375 177.35 45.8476 178.74 46.8976C180.13 47.9475 180.82 49.9076 180.82 52.7976C180.82 55.6876 179.89 57.8076 178.04 59.1576C176.18 60.5076 173.47 61.1776 169.91 61.1876C167.59 61.1876 159.82 60.3276 159.82 60.3276L160.05 56.6775C164.51 57.1075 167.73 57.4176 169.91 57.4176C172.09 57.4176 173.74 57.0676 174.89 56.3776C176.03 55.6875 176.6 54.5276 176.6 52.8876C176.6 51.2476 176.13 50.1476 175.14 49.5676C174.15 48.9876 172.03 48.4376 168.73 47.9076C165.43 47.3776 163.08 46.6076 161.7 45.5976C160.31 44.5876 159.62 42.7076 159.62 39.9676C159.62 37.2276 160.57 35.2276 162.52 33.8976C164.47 32.5676 166.86 31.9276 169.75 31.9276C172.04 31.9276 179.97 32.5076 179.97 32.5076V36.1876C175.78 35.9976 172.36 35.7076 169.96 35.7076H169.95Z" fill="white"/>
<path d="M201.15 36.1475H192.21V49.5875C192.21 52.8075 192.44 54.9275 192.91 55.9375C193.38 56.9575 194.49 57.4575 196.25 57.4575L201.26 57.1175L201.54 60.6075C199.64 60.9575 197.73 61.1675 195.8 61.2275C192.88 61.2275 190.85 60.5175 189.73 59.0875C188.6 57.6575 188.04 54.9475 188.05 50.9275V36.1375H184.07V32.4875H188.06V23.8775H192.22V32.4875H201.14V36.1375L201.15 36.1475Z" fill="white"/>
<path d="M207.01 28.9075V24.0075H211.23V28.9075H207.01ZM207.01 60.9675V32.5075H211.23V60.9675H207.01Z" fill="white"/>
<path d="M229.5 31.9375C231.61 32.0275 233.7 32.2575 235.78 32.6175L237.13 32.7875L236.96 36.2175C234.76 35.9375 232.54 35.7675 230.32 35.7175C227.13 35.7175 224.97 36.4775 223.83 37.9975C222.69 39.5175 222.12 42.3275 222.11 46.4375C222.11 50.5475 222.64 53.4075 223.71 55.0175C224.78 56.6275 227.01 57.4275 230.4 57.4375L237.04 56.9375L237.21 60.4275C234.62 60.8675 232.01 61.1275 229.39 61.2175C225.01 61.2175 221.98 60.0875 220.31 57.8375C218.64 55.5875 217.81 51.7875 217.81 46.4475C217.81 41.1075 218.71 37.3575 220.51 35.1975C222.31 33.0375 225.31 31.9575 229.5 31.9575V31.9375Z" fill="white"/>
</svg>
